<svg width="10" height="18" viewBox="0 0 10 18" fill="none" xmlns="http://www.w3.org/2000/svg">
<path d="M9.40298 16.955C9.63731 16.7206 9.76896 16.4027 9.76896 16.0713C9.76896 15.7398 9.63731 15.4219 9.40297 15.1875L3.21547 9L9.40297 2.8125C9.63067 2.57675 9.75666 2.26099 9.75382 1.93325C9.75097 1.6055 9.61951 1.29199 9.38775 1.06023C9.15599 0.828466 8.84247 0.697006 8.51473 0.694158C8.18698 0.691311 7.87123 0.817302 7.63547 1.045L0.564225 8.11625C0.329886 8.35066 0.198242 8.66855 0.198242 9C0.198242 9.33146 0.329886 9.64934 0.564225 9.88375L7.63548 16.955C7.86988 17.1893 8.18777 17.321 8.51923 17.321C8.85068 17.321 9.16857 17.1893 9.40298 16.955Z" fill="white"/>
</svg>
