<svg width="21" height="20" viewBox="0 0 21 20" fill="none" xmlns="http://www.w3.org/2000/svg">
<path d="M7.59702 17.955C7.36269 17.7206 7.23104 17.4027 7.23104 17.0713C7.23104 16.7398 7.36269 16.4219 7.59703 16.1875L13.7845 10L7.59703 3.8125C7.36933 3.57675 7.24334 3.26099 7.24618 2.93325C7.24903 2.6055 7.38049 2.29199 7.61225 2.06023C7.84401 1.82847 8.15753 1.69701 8.48527 1.69416C8.81302 1.69131 9.12877 1.8173 9.36453 2.045L16.4358 9.11625C16.6701 9.35066 16.8018 9.66855 16.8018 10C16.8018 10.3315 16.6701 10.6493 16.4358 10.8838L9.36452 17.955C9.13012 18.1893 8.81223 18.321 8.48077 18.321C8.14932 18.321 7.83143 18.1893 7.59702 17.955Z" fill="white"/>
</svg>
